<?xml version="1.0" encoding="utf-8"?>
<!-- Generator: Adobe Illustrator 21.1.0, SVG Export Plug-In . SVG Version: 6.00 Build 0)  -->
<svg version="1.1" id="Layer_1" xmlns="http://www.w3.org/2000/svg" xmlns:xlink="http://www.w3.org/1999/xlink" x="0px" y="0px"
	 viewBox="0 0 50 50" style="enable-background:new 0 0 50 50;" xml:space="preserve">
<style type="text/css">
	.st0{fill:#FFFFFF;}
</style>
<path class="st0" d="M43.6,24c0-1.7-0.4-3.2-1.2-4.2c-0.8-1.1-2-1.6-3.4-1.8c-0.3-1.6-0.8-3-1.6-4.3c3.1-1.8,3.5-4.6,3.5-4.7
	c0.1-0.4-0.2-0.7-0.6-0.8h0c-3.8-1.3-8-0.5-9.2-0.2c-0.7-0.4-2.8-1.4-5.9-1.4c0,0,0,0,0,0c0,0,0,0,0,0c-3.1,0-5.2,1-5.9,1.4
	c-1.1-0.3-5.4-1.1-9.2,0.2h0C9.7,8.2,9.5,8.6,9.5,8.9c0,0.1,0.4,2.9,3.5,4.7c-0.8,1.3-1.3,2.8-1.6,4.3c-1.5,0.1-2.6,0.7-3.4,1.8
	c-0.8,1-1.2,2.5-1.2,4.2c0,7.7,7.4,18.9,17.7,19.4c0.2,0,0.3,0,0.5,0c0.1,0,0.1,0,0.2,0c0,0,0,0,0,0s0,0,0,0c0,0,0,0,0,0
	c0,0,0,0,0,0c0.1,0,0.1,0,0.2,0c0.2,0,0.4,0,0.5,0C36.2,42.9,43.6,31.6,43.6,24z M36.5,12.5c-0.3-0.4-0.6-0.7-0.9-1
	c1-0.3,2.1-0.7,3.2-1.2C38.4,10.9,37.7,11.8,36.5,12.5z M17.6,9.1c0.9,0.1,1.6,0.3,1.6,0.3c0.2,0.1,0.4,0,0.6-0.1c0,0,2-1.3,5.4-1.3
	h0c0,0,0,0,0,0h0c0,0,0,0,0,0h0c3.4,0,5.4,1.3,5.4,1.3c0.2,0.1,0.4,0.1,0.6,0.1c0,0,0.6-0.2,1.6-0.3C34,8.9,36,8.7,38,9
	c-1.2,0.5-2.4,0.9-3.5,1.2c-0.6,0.2-1.1,0.3-1.6,0.5c0,0-0.1,0-0.1,0c-3.3,0.9-6,1.8-7.6,4.8h0c-1.5-3-4.3-3.8-7.6-4.8
	c0,0-0.1,0-0.1,0c-0.5-0.1-1.1-0.3-1.6-0.5C14.8,10,13.6,9.6,12.4,9C14.4,8.7,16.3,8.9,17.6,9.1z M11.5,10.2
	c1.1,0.5,2.2,0.9,3.2,1.2c-0.3,0.3-0.6,0.7-0.9,1C12.6,11.8,11.9,10.9,11.5,10.2z M16.2,11.9c0.3,0.1,0.6,0.2,0.9,0.3
	c3.7,1.1,6.1,1.8,7.3,5.3h0c-0.8,0.3-1.4,1.1-2.2,1.9c0,0-0.1,0.1-0.1,0.1c-0.1-2-1.8-3.6-3.8-3.6c-2.1,0-3.8,1.7-3.8,3.8
	c0,2.1,1.7,3.8,3.8,3.8h0h0c0,0,0,0,0,0c2.2,0,3.7-1.8,4.9-3.2c0.6-0.8,1.4-1.6,1.8-1.6c0,0,0,0,0,0c0,0,0,0,0,0
	c0.5,0,1.2,0.9,1.8,1.6c1.2,1.4,2.7,3.1,4.9,3.2c0,0,0,0,0.1,0h0h0c2.1,0,3.8-1.7,3.8-3.8c0-2.1-1.7-3.8-3.8-3.8
	c-2,0-3.7,1.6-3.8,3.6c0,0-0.1-0.1-0.1-0.1c-0.7-0.9-1.4-1.6-2.2-1.9c1.2-3.6,3.6-4.3,7.3-5.3c0.3-0.1,0.6-0.2,0.9-0.3
	c2.1,2,3.5,4.7,3.6,7.8c0,0,0,0.1,0,0.1c0,3.3-2.7,6-5.9,6c-1.5,0-2.8-0.4-3.8-1c0-0.1,0-0.3-0.1-0.4l-2.1-3.5
	c-0.1-0.2-0.4-0.3-0.6-0.3c-0.2,0-0.5,0.1-0.6,0.3l-2.1,3.5c-0.1,0.1-0.1,0.3-0.1,0.4c-1,0.7-2.3,1-3.8,1c-3.3,0-5.9-2.7-5.9-6
	c0,0,0-0.1,0-0.1C12.8,16.6,14.1,13.8,16.2,11.9z M20.7,19.7c0,1.3-1.1,2.4-2.4,2.4h0c-1.3,0-2.4-1.1-2.4-2.4c0-1.3,1.1-2.4,2.4-2.4
	C19.7,17.3,20.7,18.4,20.7,19.7z M29.6,19.7c0-1.3,1.1-2.4,2.4-2.4c1.3,0,2.4,1.1,2.4,2.4c0,1.3-1.1,2.4-2.4,2.4c0,0,0,0,0,0
	C30.7,22.1,29.6,21,29.6,19.7z M26.5,24.7l-0.2,0.4l-1.2,3.3L24,25.2l-0.2-0.4l1.1-1.7l0.3-0.5l0.3,0.5L26.5,24.7z M8.2,24
	c0-1.4,0.3-2.6,0.9-3.4c0.5-0.7,1.2-1.1,2.1-1.2c0,0.3,0,0.6,0,1c0,6.8,1.6,13.9,5.1,18.4C11.3,35,8.2,28.7,8.2,24z M12.8,24.3
	c1.1,1.4,2.6,2.4,4.4,2.7c0.1,2.2,0.9,10.3,3.8,14.3C16.2,38.8,13.4,31.5,12.8,24.3z M25.2,42c-4.9,0-6.4-10.1-6.6-14.9c0,0,0,0,0,0
	c1.6,0,3.1-0.4,4.3-1.1l1.7,4.3c0.1,0.3,0.4,0.9,0.7,0.9c0.3,0,0.6-0.7,0.7-0.9l1.7-4.3c1.2,0.7,2.6,1.1,4.3,1.1c0,0,0,0,0,0
	C31.6,31.9,30,42,25.2,42z M29.3,41.3c3-4,3.7-12.1,3.8-14.3c1.8-0.3,3.3-1.3,4.4-2.7C36.9,31.5,34.1,38.8,29.3,41.3z M34,38.8
	c3.5-4.5,5.1-11.6,5.1-18.4c0-0.3,0-0.7,0-1c0.9,0.1,1.6,0.5,2.1,1.2c0.6,0.8,0.9,1.9,0.9,3.4C42.2,28.7,39,35,34,38.8z"/>
<path class="st0" d="M18.6,18.6c0.4,0,0.8,0.4,0.8,0.8c0,0.4-0.4,0.8-0.8,0.8c-0.4,0-0.8-0.4-0.8-0.8C17.8,19,18.2,18.6,18.6,18.6z"
	/>
<path class="st0" d="M31.4,19.4c0-0.4,0.4-0.8,0.8-0.8c0.4,0,0.8,0.4,0.8,0.8c0,0.4-0.4,0.8-0.8,0.8C31.8,20.3,31.4,19.9,31.4,19.4z
	"/>
</svg>
