<?xml version="1.0" encoding="utf-8"?>
<!-- Generator: Adobe Illustrator 21.1.0, SVG Export Plug-In . SVG Version: 6.00 Build 0)  -->
<svg version="1.1" id="Ebene_1" xmlns="http://www.w3.org/2000/svg" xmlns:xlink="http://www.w3.org/1999/xlink" x="0px" y="0px"
	 viewBox="0 0 50 50" style="enable-background:new 0 0 50 50;" xml:space="preserve">
<path d="M43.5,23.9c0-1.7-0.4-3.2-1.2-4.2c-0.8-1.1-2-1.6-3.4-1.8c-0.3-1.6-0.8-3-1.6-4.3c3.1-1.8,3.5-4.6,3.5-4.7
	c0.1-0.4-0.2-0.7-0.6-0.8h0c-3.8-1.3-8-0.5-9.2-0.2c-0.7-0.4-2.8-1.4-5.9-1.4c0,0,0,0,0,0c0,0,0,0,0,0c-3.1,0-5.2,1-5.9,1.4
	C18,7.6,13.8,6.8,10,8.1h0C9.6,8.1,9.3,8.5,9.4,8.9c0,0.1,0.4,2.9,3.5,4.7c-0.8,1.3-1.3,2.8-1.6,4.3c-1.5,0.1-2.6,0.7-3.4,1.8
	c-0.8,1-1.2,2.5-1.2,4.2c0,7.7,7.4,18.9,17.7,19.4c0.2,0,0.3,0,0.5,0c0.1,0,0.1,0,0.2,0c0,0,0,0,0,0s0,0,0,0c0,0,0,0,0,0
	c0,0,0,0,0,0c0.1,0,0.1,0,0.2,0c0.2,0,0.4,0,0.5,0C36.1,42.8,43.5,31.5,43.5,23.9z M36.4,12.4c-0.3-0.4-0.6-0.7-0.9-1
	c1-0.3,2.1-0.7,3.2-1.2C38.3,10.8,37.6,11.7,36.4,12.4z M17.5,9c0.9,0.1,1.6,0.3,1.6,0.3c0.2,0.1,0.4,0,0.6-0.1c0,0,2-1.3,5.4-1.3h0
	c0,0,0,0,0,0h0c0,0,0,0,0,0h0c3.4,0,5.4,1.3,5.4,1.3c0.2,0.1,0.4,0.1,0.6,0.1c0,0,0.6-0.2,1.6-0.3c1.3-0.2,3.3-0.4,5.3,0
	c-1.2,0.5-2.4,0.9-3.5,1.2c-0.6,0.2-1.1,0.3-1.6,0.5c0,0-0.1,0-0.1,0c-3.3,0.9-6,1.8-7.6,4.8h0c-1.5-3-4.3-3.8-7.6-4.8
	c0,0-0.1,0-0.1,0c-0.5-0.1-1.1-0.3-1.6-0.5c-1.1-0.3-2.3-0.7-3.5-1.2C14.2,8.6,16.2,8.8,17.5,9z M11.4,10.1c1.1,0.5,2.2,0.9,3.2,1.2
	c-0.3,0.3-0.6,0.7-0.9,1C12.5,11.7,11.8,10.8,11.4,10.1z M16.1,11.8c0.3,0.1,0.6,0.2,0.9,0.3c3.7,1.1,6.1,1.8,7.3,5.3h0
	c-0.8,0.3-1.4,1.1-2.2,1.9c0,0-0.1,0.1-0.1,0.1c-0.1-2-1.8-3.6-3.8-3.6c-2.1,0-3.8,1.7-3.8,3.8s1.7,3.8,3.8,3.8h0h0c0,0,0,0,0,0
	c2.2,0,3.7-1.8,4.9-3.2c0.6-0.8,1.4-1.6,1.8-1.6c0,0,0,0,0,0c0,0,0,0,0,0c0.5,0,1.2,0.9,1.8,1.6c1.2,1.4,2.7,3.1,4.9,3.2
	c0,0,0,0,0.1,0h0h0c2.1,0,3.8-1.7,3.8-3.8s-1.7-3.8-3.8-3.8c-2,0-3.7,1.6-3.8,3.6c0,0-0.1-0.1-0.1-0.1c-0.7-0.9-1.4-1.6-2.2-1.9
	c1.2-3.6,3.6-4.3,7.3-5.3c0.3-0.1,0.6-0.2,0.9-0.3c2.1,2,3.5,4.7,3.6,7.8c0,0,0,0.1,0,0.1c0,3.3-2.7,6-5.9,6c-1.5,0-2.8-0.4-3.8-1
	c0-0.1,0-0.3-0.1-0.4l-2.1-3.5c-0.1-0.2-0.4-0.3-0.6-0.3c-0.2,0-0.5,0.1-0.6,0.3l-2.1,3.5c-0.1,0.1-0.1,0.3-0.1,0.4
	c-1,0.7-2.3,1-3.8,1c-3.3,0-5.9-2.7-5.9-6c0,0,0-0.1,0-0.1C12.7,16.5,14,13.8,16.1,11.8z M20.6,19.6c0,1.3-1.1,2.4-2.4,2.4h0
	c-1.3,0-2.4-1.1-2.4-2.4s1.1-2.4,2.4-2.4C19.6,17.2,20.6,18.3,20.6,19.6z M29.5,19.6c0-1.3,1.1-2.4,2.4-2.4c1.3,0,2.4,1.1,2.4,2.4
	c0,1.3-1.1,2.4-2.4,2.4c0,0,0,0,0,0C30.5,22,29.5,20.9,29.5,19.6z M26.4,24.6l-0.2,0.4l-1.2,3.3l-1.2-3.3l-0.2-0.4l1.1-1.7l0.3-0.5
	l0.3,0.5L26.4,24.6z M8,23.9c0-1.4,0.3-2.6,0.9-3.4c0.5-0.7,1.2-1.1,2.1-1.2c0,0.3,0,0.6,0,1c0,6.8,1.7,13.9,5.1,18.4
	C11.2,34.9,8,28.6,8,23.9z M12.6,24.2c1.1,1.4,2.6,2.4,4.4,2.7c0.1,2.2,0.9,10.3,3.8,14.3C16.1,38.7,13.3,31.4,12.6,24.2z M25,41.9
	c-4.9,0-6.4-10.1-6.6-14.9c0,0,0,0,0,0c1.6,0,3.1-0.4,4.3-1.1l1.7,4.3c0.1,0.3,0.4,0.9,0.7,0.9c0.3,0,0.6-0.7,0.7-0.9l1.7-4.3
	c1.2,0.7,2.6,1.1,4.3,1.1c0,0,0,0,0,0C31.4,31.8,29.9,41.9,25,41.9z M29.2,41.2c3-4,3.7-12.1,3.8-14.3c1.8-0.3,3.3-1.3,4.4-2.7
	C36.8,31.4,34,38.7,29.2,41.2z M33.9,38.7c3.5-4.5,5.1-11.6,5.1-18.4c0-0.3,0-0.7,0-1c0.9,0.1,1.6,0.5,2.1,1.2
	c0.6,0.8,0.9,1.9,0.9,3.4C42.1,28.6,38.9,34.9,33.9,38.7z"/>
<path d="M16.6,19.7c0,0.9,0.7,1.6,1.6,1.6c0.9,0,1.6-0.7,1.6-1.6c0-0.9-0.7-1.6-1.6-1.6C17.4,18,16.6,18.7,16.6,19.7z M18.5,18.6
	c0.4,0,0.8,0.4,0.8,0.8c0,0.4-0.4,0.8-0.8,0.8c-0.4,0-0.8-0.4-0.8-0.8C17.7,18.9,18,18.6,18.5,18.6z"/>
<path d="M33.5,19.7c0-0.9-0.7-1.6-1.6-1.6c-0.9,0-1.6,0.7-1.6,1.6c0,0.9,0.7,1.6,1.6,1.6C32.8,21.3,33.5,20.5,33.5,19.7z M31.3,19.4
	c0-0.4,0.4-0.8,0.8-0.8c0.4,0,0.8,0.4,0.8,0.8c0,0.4-0.4,0.8-0.8,0.8C31.7,20.2,31.3,19.8,31.3,19.4z"/>
</svg>
