<?xml version="1.0" standalone="no"?>
<!DOCTYPE svg PUBLIC "-//W3C//DTD SVG 20010904//EN"
 "http://www.w3.org/TR/2001/REC-SVG-20010904/DTD/svg10.dtd">
<svg version="1.0" xmlns="http://www.w3.org/2000/svg"
 width="700.000000pt" height="700.000000pt" viewBox="0 0 700.000000 700.000000"
 preserveAspectRatio="xMidYMid meet">
<metadata>
Created by potrace 1.11, written by Peter Selinger 2001-2013
</metadata>
<g transform="translate(0.000000,700.000000) scale(0.100000,-0.100000)"
fill="#000000" stroke="none">
<path d="M3348 6085 c-2 -2 -30 -6 -62 -10 -33 -3 -94 -13 -135 -21 -42 -8
-87 -17 -101 -20 -55 -11 -232 -75 -297 -107 -55 -28 -74 -32 -98 -26 -16 5
-45 11 -64 14 -19 3 -43 7 -55 10 -196 42 -555 51 -806 19 -145 -18 -356 -77
-389 -110 -19 -18 -24 -33 -24 -66 1 -61 46 -190 100 -283 87 -153 176 -244
367 -378 18 -12 16 -17 -27 -102 -25 -50 -55 -115 -68 -145 -24 -62 -89 -270
-83 -270 1 0 -3 -18 -11 -40 -8 -22 -11 -40 -8 -40 4 0 3 -4 -3 -9 -5 -5 -35
-12 -66 -15 -170 -20 -319 -113 -429 -269 -43 -61 -104 -195 -115 -252 -2 -11
-9 -45 -16 -75 -20 -90 -14 -516 7 -550 2 -4 7 -26 10 -51 3 -24 17 -87 31
-139 13 -52 26 -104 29 -115 10 -45 96 -270 141 -371 115 -257 273 -513 463
-749 60 -75 319 -340 386 -395 669 -555 1414 -717 2160 -471 118 39 291 118
415 189 48 27 240 154 268 177 219 174 385 337 541 530 88 108 259 365 326
490 27 50 56 104 65 120 9 17 27 55 39 85 13 30 34 78 46 105 80 180 154 436
186 645 15 100 20 361 9 430 -5 30 -12 72 -15 93 -8 51 -60 197 -87 244 -103
179 -251 282 -469 326 l-62 13 -27 109 c-37 149 -99 321 -136 380 -7 11 -24
40 -37 65 l-24 45 76 52 c153 104 268 239 345 404 89 190 88 276 -2 310 -51
20 -207 59 -292 74 -273 47 -710 34 -956 -29 -47 -12 -54 -12 -96 10 -134 68
-343 132 -512 155 -74 10 -430 22 -438 14z m302 -200 c209 -13 420 -68 578
-150 69 -36 111 -43 171 -25 19 5 53 12 75 15 23 4 52 8 66 10 14 2 52 7 85
11 33 3 69 8 80 11 43 10 434 12 495 2 125 -19 125 -17 -5 -66 -138 -52 -489
-162 -650 -204 -491 -129 -780 -298 -952 -556 -30 -46 -59 -85 -64 -88 -4 -3
-17 11 -28 32 -30 60 -105 157 -168 218 -81 79 -184 147 -315 210 -116 56
-449 172 -573 200 -89 20 -416 126 -640 208 l-70 25 40 7 c22 4 54 10 71 15
49 12 356 9 484 -5 168 -19 273 -36 338 -56 28 -9 44 -5 140 39 201 94 367
136 582 148 58 4 106 8 108 9 2 2 17 1 35 -1 18 -2 70 -6 117 -9z m-1932 -349
c59 -24 150 -58 202 -76 52 -18 101 -35 108 -39 9 -5 -5 -27 -49 -74 l-61 -67
-50 27 c-67 36 -173 136 -226 212 -24 33 -41 61 -37 61 3 0 54 -20 113 -44z
m3639 -43 c-67 -81 -133 -143 -205 -191 l-54 -36 -58 64 c-33 36 -59 68 -60
71 0 3 55 25 123 48 67 23 163 59 212 80 50 21 92 37 94 35 2 -2 -21 -34 -52
-71z m-2702 -274 c340 -113 528 -241 646 -439 52 -88 105 -213 91 -218 -35
-11 -116 -78 -204 -168 l-103 -104 -17 72 c-96 393 -547 555 -852 306 -236
-193 -266 -536 -66 -760 107 -120 242 -181 400 -181 79 0 180 20 220 44 8 5
30 16 49 24 94 42 235 167 376 335 112 133 226 245 262 257 24 9 38 7 70 -7
38 -17 82 -62 289 -293 254 -286 476 -394 720 -352 219 38 400 229 427 450 53
423 -372 729 -758 545 -148 -70 -270 -235 -291 -392 -4 -27 -9 -48 -13 -48 -3
0 -19 19 -36 41 -45 62 -182 186 -231 210 -49 23 -51 30 -28 85 115 279 268
426 559 541 92 37 166 60 405 129 47 14 102 31 122 39 l37 15 60 -63 c122
-128 205 -245 281 -395 28 -55 50 -103 50 -107 0 -4 6 -21 14 -38 71 -158 116
-450 94 -611 -29 -222 -147 -424 -328 -565 -71 -55 -215 -124 -305 -146 -90
-22 -245 -25 -354 -8 -169 27 -353 101 -365 147 -3 13 -76 141 -162 284 -168
280 -178 291 -247 278 -19 -4 -42 -15 -52 -26 -30 -33 -315 -513 -315 -530 0
-23 -24 -42 -96 -78 -61 -31 -140 -56 -204 -67 -19 -3 -53 -8 -75 -12 -86 -14
-287 -6 -367 15 -326 87 -565 358 -612 692 -7 52 -9 166 -3 195 3 11 8 43 11
70 12 88 64 272 105 374 84 208 194 378 354 547 l39 41 126 -39 c70 -22 195
-62 277 -89z m36 -661 c203 -93 255 -364 100 -527 -76 -81 -179 -119 -283
-106 -194 25 -331 220 -284 404 32 123 110 208 231 248 61 20 170 11 236 -19z
m1911 3 c25 -12 67 -42 93 -67 135 -131 137 -340 4 -473 -67 -67 -136 -95
-234 -95 -154 0 -261 76 -315 223 -64 177 53 385 245 435 42 11 161 -3 207
-23z m-3058 -521 c3 -140 8 -271 10 -290 2 -19 7 -73 11 -120 3 -47 8 -94 10
-105 3 -11 7 -45 10 -75 3 -30 7 -64 9 -76 2 -12 7 -45 11 -74 4 -29 9 -62 11
-74 5 -24 10 -55 19 -106 14 -82 76 -346 105 -446 114 -394 278 -758 458
-1013 27 -38 37 -59 26 -53 -50 27 -307 276 -404 391 -327 387 -577 879 -661
1303 -39 198 -45 436 -15 583 34 163 134 313 244 366 36 18 143 50 148 45 1
-1 4 -116 8 -256z m4060 215 c30 -14 73 -45 97 -68 130 -130 177 -285 174
-574 -1 -92 -7 -195 -13 -228 -6 -33 -14 -76 -17 -95 -37 -225 -174 -570 -333
-838 -193 -325 -405 -571 -720 -833 -34 -29 -37 -23 -8 16 229 300 443 810
547 1301 11 55 23 108 25 119 6 24 24 130 29 165 2 14 8 54 14 90 5 36 12 90
16 120 3 30 8 66 10 80 2 14 7 54 9 90 3 36 8 103 11 150 9 121 14 254 14 411
l1 136 45 -8 c25 -5 69 -20 99 -34z m-2004 -551 c91 -142 93 -147 81 -178 -25
-62 -133 -352 -154 -413 -11 -35 -23 -63 -26 -63 -4 0 -43 100 -87 223 -45
122 -88 236 -95 254 -12 30 -11 34 61 145 40 62 78 123 84 135 6 13 14 23 19
23 4 0 7 7 7 16 0 27 15 8 110 -142z m-1748 -187 c132 -132 289 -225 443 -263
39 -9 73 -20 77 -23 4 -3 9 -37 13 -76 14 -177 21 -236 50 -450 1 -11 6 -45
10 -75 4 -30 8 -57 10 -60 2 -3 6 -30 10 -60 4 -30 9 -58 11 -61 2 -4 6 -24
10 -45 3 -22 12 -68 20 -104 9 -36 18 -76 20 -90 3 -14 21 -88 41 -165 64
-252 173 -533 267 -689 20 -32 36 -62 36 -66 0 -4 7 -13 15 -20 26 -22 16 -33
-12 -14 -16 10 -37 23 -48 28 -20 11 -75 52 -140 106 -62 51 -202 201 -258
277 -175 234 -339 558 -432 853 -15 47 -31 94 -35 105 -10 22 -19 54 -25 83
-2 10 -12 50 -23 88 -37 129 -91 387 -112 539 -6 44 -13 91 -15 105 -2 14 -7
52 -11 85 -3 33 -8 63 -11 68 -13 21 14 -1 89 -76z m3374 6 c-3 -43 -10 -105
-15 -138 -5 -33 -12 -81 -15 -106 -22 -170 -95 -492 -156 -684 -201 -633 -491
-1069 -869 -1312 -36 -23 -67 -40 -69 -38 -2 1 18 35 43 74 162 250 296 644
379 1111 35 197 41 238 50 315 4 28 8 66 11 85 10 72 33 329 35 393 0 9 3 16
8 15 4 -1 23 2 42 6 187 44 372 153 497 291 32 36 60 64 62 65 2 0 1 -35 -3
-77z m-2030 -193 c79 -204 210 -535 227 -575 29 -65 64 -105 92 -105 41 0 77
68 185 345 34 88 69 175 76 192 8 18 26 63 40 100 14 38 29 71 33 76 4 4 51
-13 104 -38 127 -60 309 -102 455 -104 l44 -1 -7 -72 c-4 -40 -9 -80 -10 -89
-2 -8 -6 -51 -10 -94 -3 -43 -8 -81 -10 -84 -1 -3 -6 -28 -9 -56 -16 -125 -18
-136 -51 -330 -5 -25 -26 -127 -30 -145 -1 -3 -7 -32 -14 -65 -22 -103 -90
-335 -133 -450 -78 -213 -200 -427 -296 -523 -217 -216 -493 -235 -708 -50
-97 84 -155 162 -254 343 -53 98 -169 425 -194 550 -3 11 -13 61 -25 110 -33
151 -64 324 -75 425 -4 30 -8 69 -10 85 -20 153 -23 182 -31 320 -4 61 -9 113
-12 118 -3 6 61 12 88 9 4 -1 49 5 100 13 148 23 270 61 369 115 44 24 49 22
66 -20z"/>
<path d="M2505 4465 c-5 -2 -22 -6 -37 -9 -41 -9 -99 -65 -121 -116 -67 -150
38 -320 196 -320 123 0 213 80 224 200 12 131 -71 228 -207 244 -25 3 -49 3
-55 1z m161 -106 c51 -47 39 -123 -26 -166 -53 -37 -116 -17 -146 46 -19 39
-13 94 12 122 38 42 115 41 160 -2z"/>
<path d="M4420 4459 c-103 -20 -173 -105 -174 -213 -2 -212 250 -306 388 -144
54 62 69 145 40 220 -40 103 -144 159 -254 137z m136 -89 c69 -50 58 -147 -21
-184 -85 -41 -180 56 -138 142 32 66 101 84 159 42z"/>
</g>
</svg>
